<svg width="368" height="139" viewBox="0 0 368 139" fill="none" xmlns="http://www.w3.org/2000/svg">
<g clip-path="url(#clip0_8379_2165)">
<path d="M18.4006 13.5021H16.8497C16.8497 13.5021 16.7486 13.5359 16.7149 13.581L15.9394 14.9335C15.9394 14.9335 15.917 15.0349 15.9394 15.08L16.7149 16.4325C16.7149 16.4325 16.7935 16.5114 16.8497 16.5114H18.4006C18.4006 16.5114 18.5018 16.4776 18.5355 16.4325L19.3109 15.08C19.3109 15.08 19.3334 14.9786 19.3109 14.9335L18.5355 13.581C18.5355 13.581 18.4568 13.5021 18.4006 13.5021Z" fill="#ccf9c2"/>
<path d="M61.9268 13.5021H60.3759C60.3759 13.5021 60.2747 13.5359 60.241 13.581L59.4656 14.9335C59.4656 14.9335 59.4431 15.0349 59.4656 15.08L60.241 16.4325C60.241 16.4325 60.3197 16.5114 60.3759 16.5114H61.9268C61.9268 16.5114 62.0279 16.4776 62.0616 16.4325L62.8371 15.08C62.8371 15.08 62.8595 14.9786 62.8371 14.9335L62.0616 13.581C62.0616 13.581 61.983 13.5021 61.9268 13.5021Z" fill="#ccf9c2"/>
<path d="M105.464 13.5021H103.913C103.913 13.5021 103.812 13.5359 103.778 13.581L103.003 14.9335C103.003 14.9335 102.98 15.0349 103.003 15.08L103.778 16.4325C103.778 16.4325 103.857 16.5114 103.913 16.5114H105.464C105.464 16.5114 105.565 16.4776 105.599 16.4325L106.374 15.08C106.374 15.08 106.397 14.9786 106.374 14.9335L105.599 13.581C105.599 13.581 105.52 13.5021 105.464 13.5021Z" fill="#ccf9c2"/>
<path d="M192.528 13.5021H190.977C190.977 13.5021 190.876 13.5359 190.842 13.581L190.067 14.9335C190.067 14.9335 190.044 15.0349 190.067 15.08L190.842 16.4325C190.842 16.4325 190.921 16.5114 190.977 16.5114H192.528C192.528 16.5114 192.629 16.4776 192.663 16.4325L193.438 15.08C193.438 15.08 193.461 14.9786 193.438 14.9335L192.663 13.581C192.663 13.581 192.584 13.5021 192.528 13.5021Z" fill="#ccf9c2"/>
<path d="M236.054 13.5021H234.503C234.503 13.5021 234.402 13.5359 234.368 13.581L233.593 14.9335C233.593 14.9335 233.57 15.0349 233.593 15.08L234.368 16.4325C234.368 16.4325 234.447 16.5114 234.503 16.5114H236.054C236.054 16.5114 236.155 16.4776 236.189 16.4325L236.964 15.08C236.964 15.08 236.987 14.9786 236.964 14.9335L236.189 13.581C236.189 13.581 236.11 13.5021 236.054 13.5021Z" fill="#ccf9c2"/>
<path d="M279.591 13.5021H278.04C278.04 13.5021 277.939 13.5359 277.906 13.581L277.13 14.9335C277.13 14.9335 277.108 15.0349 277.13 15.08L277.906 16.4325C277.906 16.4325 277.984 16.5114 278.04 16.5114H279.591C279.591 16.5114 279.692 16.4776 279.726 16.4325L280.502 15.08C280.502 15.08 280.524 14.9786 280.502 14.9335L279.726 13.581C279.726 13.581 279.647 13.5021 279.591 13.5021Z" fill="#ccf9c2"/>
<path d="M323.118 13.5021H321.567C321.567 13.5021 321.466 13.5359 321.432 13.581L320.656 14.9335C320.656 14.9335 320.634 15.0349 320.656 15.08L321.432 16.4325C321.432 16.4325 321.511 16.5114 321.567 16.5114H323.118C323.118 16.5114 323.219 16.4776 323.253 16.4325L324.028 15.08C324.028 15.08 324.05 14.9786 324.028 14.9335L323.253 13.581C323.253 13.581 323.174 13.5021 323.118 13.5021Z" fill="#ccf9c2"/>
<path d="M366.644 13.5021H365.093C365.093 13.5021 364.992 13.5359 364.958 13.581L364.183 14.9335C364.183 14.9335 364.16 15.0349 364.183 15.08L364.958 16.4325C364.958 16.4325 365.037 16.5114 365.093 16.5114H366.644C366.644 16.5114 366.745 16.4776 366.779 16.4325L367.554 15.08C367.554 15.08 367.577 14.9786 367.554 14.9335L366.779 13.581C366.779 13.581 366.7 13.5021 366.644 13.5021Z" fill="#ccf9c2"/>
<path d="M61.9268 50.7401H60.3759C60.3759 50.7401 60.2747 50.7739 60.241 50.819L59.4656 52.1715C59.4656 52.1715 59.4431 52.2729 59.4656 52.318L60.241 53.6705C60.241 53.6705 60.3197 53.7494 60.3759 53.7494H61.9268C61.9268 53.7494 62.0279 53.7155 62.0616 53.6705L62.8371 52.318C62.8371 52.318 62.8595 52.2166 62.8371 52.1715L62.0616 50.819C62.0616 50.819 61.983 50.7401 61.9268 50.7401Z" fill="#ccf9c2"/>
<path d="M105.464 50.7401H103.913C103.913 50.7401 103.812 50.7739 103.778 50.819L103.003 52.1715C103.003 52.1715 102.98 52.2729 103.003 52.318L103.778 53.6705C103.778 53.6705 103.857 53.7494 103.913 53.7494H105.464C105.464 53.7494 105.565 53.7155 105.599 53.6705L106.374 52.318C106.374 52.318 106.397 52.2166 106.374 52.1715L105.599 50.819C105.599 50.819 105.52 50.7401 105.464 50.7401Z" fill="#ccf9c2"/>
<path d="M148.99 50.7401H147.439C147.439 50.7401 147.338 50.7739 147.304 50.819L146.529 52.1715C146.529 52.1715 146.507 52.2729 146.529 52.318L147.304 53.6705C147.304 53.6705 147.383 53.7494 147.439 53.7494H148.99C148.99 53.7494 149.091 53.7155 149.125 53.6705L149.901 52.318C149.901 52.318 149.923 52.2166 149.901 52.1715L149.125 50.819C149.125 50.819 149.046 50.7401 148.99 50.7401Z" fill="#ccf9c2"/>
<path d="M192.528 50.7401H190.977C190.977 50.7401 190.876 50.7739 190.842 50.819L190.067 52.1715C190.067 52.1715 190.044 52.2729 190.067 52.318L190.842 53.6705C190.842 53.6705 190.921 53.7494 190.977 53.7494H192.528C192.528 53.7494 192.629 53.7155 192.663 53.6705L193.438 52.318C193.438 52.318 193.461 52.2166 193.438 52.1715L192.663 50.819C192.663 50.819 192.584 50.7401 192.528 50.7401Z" fill="#ccf9c2"/>
<path d="M279.591 50.7401H278.04C278.04 50.7401 277.939 50.7739 277.906 50.819L277.13 52.1715C277.13 52.1715 277.108 52.2729 277.13 52.318L277.906 53.6705C277.906 53.6705 277.984 53.7494 278.04 53.7494H279.591C279.591 53.7494 279.692 53.7155 279.726 53.6705L280.502 52.318C280.502 52.318 280.524 52.2166 280.502 52.1715L279.726 50.819C279.726 50.819 279.647 50.7401 279.591 50.7401Z" fill="#ccf9c2"/>
<path d="M323.118 50.7401H321.567C321.567 50.7401 321.466 50.7739 321.432 50.819L320.656 52.1715C320.656 52.1715 320.634 52.2729 320.656 52.318L321.432 53.6705C321.432 53.6705 321.511 53.7494 321.567 53.7494H323.118C323.118 53.7494 323.219 53.7155 323.253 53.6705L324.028 52.318C324.028 52.318 324.05 52.2166 324.028 52.1715L323.253 50.819C323.253 50.819 323.174 50.7401 323.118 50.7401Z" fill="#ccf9c2"/>
<path d="M366.644 50.7401H365.093C365.093 50.7401 364.992 50.7739 364.958 50.819L364.183 52.1715C364.183 52.1715 364.16 52.2729 364.183 52.318L364.958 53.6705C364.958 53.6705 365.037 53.7494 365.093 53.7494H366.644C366.644 53.7494 366.745 53.7155 366.779 53.6705L367.554 52.318C367.554 52.318 367.577 52.2166 367.554 52.1715L366.779 50.819C366.779 50.819 366.7 50.7401 366.644 50.7401Z" fill="#ccf9c2"/>
<path d="M323.118 87.9894H321.567C321.567 87.9894 321.466 88.0232 321.432 88.0683L320.656 89.4207C320.656 89.4207 320.634 89.5222 320.656 89.5673L321.432 90.9197C321.432 90.9197 321.511 90.9986 321.567 90.9986H323.118C323.118 90.9986 323.219 90.9648 323.253 90.9197L324.028 89.5673C324.028 89.5673 324.05 89.4658 324.028 89.4207L323.253 88.0683C323.253 88.0683 323.174 87.9894 323.118 87.9894Z" fill="#ccf9c2"/>
<path d="M366.644 87.9894H365.093C365.093 87.9894 364.992 88.0232 364.958 88.0683L364.183 89.4207C364.183 89.4207 364.16 89.5222 364.183 89.5673L364.958 90.9197C364.958 90.9197 365.037 90.9986 365.093 90.9986H366.644C366.644 90.9986 366.745 90.9648 366.779 90.9197L367.554 89.5673C367.554 89.5673 367.577 89.4658 367.554 89.4207L366.779 88.0683C366.779 88.0683 366.7 87.9894 366.644 87.9894Z" fill="#ccf9c2"/>
<path d="M18.4006 87.9894H16.8497C16.8497 87.9894 16.7486 88.0232 16.7149 88.0683L15.9394 89.4207C15.9394 89.4207 15.917 89.5222 15.9394 89.5673L16.7149 90.9197C16.7149 90.9197 16.7935 90.9986 16.8497 90.9986H18.4006C18.4006 90.9986 18.5018 90.9648 18.5355 90.9197L19.3109 89.5673C19.3109 89.5673 19.3334 89.4658 19.3109 89.4207L18.5355 88.0683C18.5355 88.0683 18.4568 87.9894 18.4006 87.9894Z" fill="#ccf9c2"/>
<path d="M61.9268 87.9894H60.3759C60.3759 87.9894 60.2747 88.0232 60.241 88.0683L59.4656 89.4207C59.4656 89.4207 59.4431 89.5222 59.4656 89.5673L60.241 90.9197C60.241 90.9197 60.3197 90.9986 60.3759 90.9986H61.9268C61.9268 90.9986 62.0279 90.9648 62.0616 90.9197L62.8371 89.5673C62.8371 89.5673 62.8595 89.4658 62.8371 89.4207L62.0616 88.0683C62.0616 88.0683 61.983 87.9894 61.9268 87.9894Z" fill="#ccf9c2"/>
<path d="M18.4006 125.227H16.8497C16.8497 125.227 16.7486 125.261 16.7149 125.306L15.9394 126.659C15.9394 126.659 15.917 126.76 15.9394 126.805L16.7149 128.158C16.7149 128.158 16.7935 128.237 16.8497 128.237H18.4006C18.4006 128.237 18.5018 128.203 18.5355 128.158L19.3109 126.805C19.3109 126.805 19.3334 126.704 19.3109 126.659L18.5355 125.306C18.5355 125.306 18.4568 125.227 18.4006 125.227Z" fill="#ccf9c2"/>
<path d="M61.9268 125.227H60.3759C60.3759 125.227 60.2747 125.261 60.241 125.306L59.4656 126.659C59.4656 126.659 59.4431 126.76 59.4656 126.805L60.241 128.158C60.241 128.158 60.3197 128.237 60.3759 128.237H61.9268C61.9268 128.237 62.0279 128.203 62.0616 128.158L62.8371 126.805C62.8371 126.805 62.8595 126.704 62.8371 126.659L62.0616 125.306C62.0616 125.306 61.983 125.227 61.9268 125.227Z" fill="#ccf9c2"/>
<path d="M16.1529 48.5649H15.1864V55.9246H16.1529C18.0859 55.9246 19.9739 55.4399 19.9739 52.2391C19.9739 49.0382 18.0859 48.5649 16.1529 48.5649Z" fill="#ccf9c2"/>
<path d="M34.4602 51.484L26.6945 38.0044C26.4248 37.531 25.9303 37.2493 25.3908 37.2493H9.87066C9.33122 37.2493 8.83673 37.5423 8.56701 38.0044L0.790059 51.484C0.520338 51.9574 0.520338 52.5322 0.790059 52.9943L8.55577 66.4739C8.82549 66.9472 9.31998 67.229 9.85942 67.229H25.3796C25.919 67.229 26.4135 66.936 26.6832 66.4739L34.449 52.9943C34.7187 52.5209 34.7187 51.9461 34.449 51.484H34.4602ZM16.254 57.5701H13.1073V46.9194H16.254C19.6256 46.9194 22.1542 48.0239 22.1542 52.2391C22.1542 56.4543 19.6256 57.5701 16.254 57.5701Z" fill="#ccf9c2"/>
<path d="M165.05 14.2459L157.284 0.766298C157.014 0.292934 156.52 0.0111694 155.981 0.0111694H140.46C139.921 0.0111694 139.426 0.304204 139.157 0.766298L131.391 14.2459C131.121 14.7193 131.121 15.2941 131.391 15.7562L139.157 29.2358C139.426 29.7091 139.921 29.9909 140.46 29.9909H155.981C156.52 29.9909 157.014 29.6979 157.284 29.2358L165.05 15.7562C165.32 15.2828 165.32 14.708 165.05 14.2459ZM154.025 20.5236H152.081V12.5215L149.474 20.5236H147.394L144.776 12.5215V20.5236H142.832V9.87292H145.877L148.451 18.1681L150.957 9.87292H154.036V20.5236H154.025Z" fill="#ccf9c2"/>
<path d="M236.031 48.7565H234.447V52.3857H236.177C237.481 52.3857 238.504 52.0588 238.504 50.65C238.504 48.903 237.166 48.7565 236.031 48.7565Z" fill="#ccf9c2"/>
<path d="M252.114 51.484L244.348 38.0044C244.078 37.531 243.584 37.2493 243.044 37.2493H227.524C226.985 37.2493 226.49 37.5423 226.22 38.0044L218.455 51.484C218.185 51.9574 218.185 52.5322 218.455 52.9943L226.22 66.4739C226.49 66.9472 226.985 67.229 227.524 67.229H243.044C243.584 67.229 244.078 66.936 244.348 66.4739L252.114 52.9943C252.383 52.5209 252.383 51.9461 252.114 51.484ZM236.054 54.0199H234.458V57.7617H232.368V47.111H235.998C238.178 47.111 240.673 47.4153 240.673 50.6387C240.673 53.3549 238.504 54.0199 236.065 54.0199H236.054Z" fill="#ccf9c2"/>
<path d="M105.79 89.4771C105.79 97.22 101.104 99.5079 94.7653 99.5079H89.3035V79.4688H94.7653C101.104 79.4688 105.79 81.768 105.79 89.4771ZM92.4502 82.0723V96.9157H94.6304C98.6313 96.9157 102.542 96.0816 102.542 89.4771C102.542 82.8725 98.6313 82.0723 94.6304 82.0723H92.4502Z" fill="#ccf9c2"/>
<path d="M112.039 82.6471H109.173V79.4688H112.039V82.6471ZM112.039 99.5079H109.173V84.642H112.039V99.5079Z" fill="#ccf9c2"/>
<path d="M122.03 87.5047C119.827 87.5047 118.669 88.5867 118.669 91.7087V99.5079H115.803V84.642H118.613V87.2681C119.389 85.5775 120.872 84.6195 122.715 84.5857C122.962 84.5857 123.266 84.5857 123.513 84.6082V87.5949C122.985 87.5386 122.49 87.516 122.03 87.516V87.5047Z" fill="#ccf9c2"/>
<path d="M138.853 95.1349C138.168 97.5919 135.965 99.8573 132.189 99.8573C127.39 99.8573 124.805 96.3521 124.805 92.0355C124.805 87.4146 127.896 84.349 132.11 84.349C136.684 84.349 139.359 88.1133 139.056 92.9484H127.761C128.042 95.6872 129.773 97.4003 132.088 97.4003C134.156 97.4003 135.369 96.5437 135.976 95.1349H138.865H138.853ZM136.066 90.683C135.988 88.474 134.437 86.7045 132.065 86.7045C129.829 86.7045 128.177 87.8654 127.795 90.683H136.066Z" fill="#ccf9c2"/>
<path d="M144.798 90.9874L150.699 84.6307H154.194L148.428 90.7619L154.598 99.4966H151.182L146.473 92.8357L144.787 94.6277V99.4966H141.921V79.4576H144.787V90.9874H144.798Z" fill="#ccf9c2"/>
<path d="M160.746 80.8213V84.6307H163.668V86.8172H160.746V95.304C160.746 96.8255 160.993 97.2087 162.432 97.2087H163.645V99.5079H161.555C158.554 99.5079 157.891 98.764 157.891 95.6985V86.8285H155.632V84.642H157.891V80.8326H160.757L160.746 80.8213Z" fill="#ccf9c2"/>
<path d="M172.321 99.8685C168.826 99.8685 165.129 97.4904 165.129 92.1257C165.129 86.7609 168.826 84.3602 172.321 84.3602C175.816 84.3602 179.547 86.7383 179.547 92.1257C179.547 97.513 175.85 99.8685 172.321 99.8685ZM176.513 92.1257C176.513 88.4176 174.501 86.7947 172.321 86.7947C170.141 86.7947 168.163 88.3726 168.163 92.1257C168.163 95.8788 170.175 97.4341 172.321 97.4341C174.468 97.4341 176.513 95.7435 176.513 92.1257Z" fill="#ccf9c2"/>
<path d="M188.74 87.5047C186.538 87.5047 185.38 88.5867 185.38 91.7087V99.5079H182.514V84.642H185.324V87.2681C186.099 85.5775 187.583 84.6195 189.426 84.5857C189.673 84.5857 189.977 84.5857 190.224 84.6082V87.5949C189.696 87.5386 189.201 87.516 188.74 87.516V87.5047Z" fill="#ccf9c2"/>
<path d="M201.575 90.2999V89.9956C201.575 87.3695 200.192 86.4904 198.383 86.4904C196.394 86.4904 195.27 87.516 195.158 89.3419H192.269C192.517 86.1861 195.113 84.2814 198.495 84.2814C202.328 84.2814 204.53 86.1298 204.474 90.5816C204.474 90.9423 204.418 93.512 204.418 94.1431C204.418 96.3522 204.553 98.178 204.834 99.5079H202.08C201.968 98.9219 201.889 98.4823 201.833 97.5468C200.957 99.0346 199.271 99.8686 196.877 99.8686C193.876 99.8686 191.584 98.2118 191.584 95.5069C191.584 91.889 195.832 90.9197 201.586 90.3111L201.575 90.2999ZM194.686 95.4392C194.686 96.7917 195.764 97.6483 197.495 97.6483C199.866 97.6483 201.71 96.4649 201.71 93.5007V92.4187C197.102 92.8583 194.686 93.5007 194.686 95.428V95.4392Z" fill="#ccf9c2"/>
<path d="M211.363 80.8213V84.6307H214.285V86.8172H211.363V95.304C211.363 96.8255 211.61 97.2087 213.049 97.2087H214.263V99.5079H212.172C209.172 99.5079 208.509 98.764 208.509 95.6985V86.8285H206.25V84.642H208.509V80.8326H211.374L211.363 80.8213Z" fill="#ccf9c2"/>
<path d="M229.772 95.1349C229.086 97.5919 226.883 99.8573 223.107 99.8573C218.308 99.8573 215.724 96.3521 215.724 92.0355C215.724 87.4146 218.814 84.349 223.029 84.349C227.603 84.349 230.277 88.1133 229.974 92.9484H218.679C218.96 95.6872 220.691 97.4003 223.006 97.4003C225.074 97.4003 226.288 96.5437 226.895 95.1349H229.783H229.772ZM226.984 90.683C226.906 88.474 225.355 86.7045 222.984 86.7045C220.747 86.7045 219.095 87.8654 218.713 90.683H226.984Z" fill="#ccf9c2"/>
<path d="M236.189 80.8213V84.6307H239.111V86.8172H236.189V95.304C236.189 96.8255 236.436 97.2087 237.875 97.2087H239.088V99.5079H236.998C233.997 99.5079 233.334 98.764 233.334 95.6985V86.8285H231.075V84.642H233.334V80.8326H236.2L236.189 80.8213Z" fill="#ccf9c2"/>
<path d="M254.687 79.4688H255.98V81.768H254.878C253.417 81.768 253.114 82.0723 253.114 83.6164V84.642H255.98V86.8285H253.114V99.5192H250.248V86.8285H248.18V84.642H250.248V83.6502C250.248 80.3592 251.215 79.4801 254.687 79.4801V79.4688Z" fill="#ccf9c2"/>
<path d="M264.296 99.8685C260.801 99.8685 257.104 97.4904 257.104 92.1257C257.104 86.7609 260.801 84.3602 264.296 84.3602C267.791 84.3602 271.522 86.7383 271.522 92.1257C271.522 97.513 267.825 99.8685 264.296 99.8685ZM268.488 92.1257C268.488 88.4176 266.476 86.7947 264.296 86.7947C262.116 86.7947 260.138 88.3726 260.138 92.1257C260.138 95.8788 262.15 97.4341 264.296 97.4341C266.443 97.4341 268.488 95.7435 268.488 92.1257Z" fill="#ccf9c2"/>
<path d="M280.715 87.5047C278.513 87.5047 277.355 88.5867 277.355 91.7087V99.5079H274.489V84.642H277.299V87.2681C278.074 85.5775 279.558 84.6195 281.401 84.5857C281.648 84.5857 281.952 84.5857 282.199 84.6082V87.5949C281.671 87.5386 281.176 87.516 280.715 87.516V87.5047Z" fill="#ccf9c2"/>
<path d="M89.3035 134.165V119.299H92.1692V121.452C93.0234 119.987 94.4282 119.017 96.5522 119.017C98.8448 119.017 100.193 119.987 100.857 121.643C102.093 119.795 103.835 119.017 105.768 119.017C109.24 119.017 110.589 121.339 110.589 124.799V134.165H107.723V125.565C107.723 123.413 107.397 121.418 104.801 121.418C102.542 121.418 101.385 123.21 101.385 126.174V134.165H98.5189V125.565C98.5189 123.413 98.193 121.418 95.5969 121.418C93.3043 121.418 92.1805 123.21 92.1805 126.174V134.165H89.3147H89.3035Z" fill="#ccf9c2"/>
<path d="M127.401 129.792C126.716 132.249 124.513 134.514 120.737 134.514C115.938 134.514 113.354 131.009 113.354 126.693C113.354 122.072 116.444 119.006 120.658 119.006C125.232 119.006 127.907 122.77 127.604 127.605H116.309C116.59 130.344 118.321 132.057 120.636 132.057C122.704 132.057 123.918 131.201 124.524 129.792H127.413H127.401ZM124.614 125.34C124.536 123.131 122.985 121.362 120.614 121.362C118.377 121.362 116.725 122.522 116.343 125.34H124.614Z" fill="#ccf9c2"/>
<path d="M143.573 114.126V134.165H140.708V132.069C139.797 133.59 138.258 134.526 136.077 134.526C132.627 134.526 129.683 131.629 129.683 126.76C129.683 121.891 132.627 119.017 136.077 119.017C138.258 119.017 139.797 119.953 140.708 121.474V114.126H143.573ZM132.74 126.76C132.74 130.108 134.369 132.125 136.741 132.125C138.943 132.125 140.82 130.434 140.82 126.76C140.82 123.086 138.943 121.429 136.741 121.429C134.369 121.429 132.74 123.424 132.74 126.76Z" fill="#ccf9c2"/>
<path d="M150.227 117.304H147.361V114.126H150.227V117.304ZM150.227 134.165H147.361V119.299H150.227V134.165Z" fill="#ccf9c2"/>
<path d="M159.172 121.305C157.767 121.305 156.25 121.891 156.25 123.097C156.25 124.202 156.97 124.675 158.318 124.946L160.442 125.363C163.252 125.915 165.702 126.884 165.702 129.781C165.702 132.677 162.892 134.503 159.476 134.503C155.722 134.503 153.441 132.317 153.081 129.533H156.003C156.385 131.223 157.486 132.215 159.554 132.215C161.397 132.215 162.836 131.437 162.836 130.119C162.836 128.8 161.544 128.18 159.993 127.876L157.756 127.436C155.52 126.997 153.429 125.994 153.429 123.21C153.429 120.584 156.183 118.983 159.442 118.983C162.42 118.983 164.814 120.561 165.365 123.435H162.521C162.105 121.914 160.836 121.305 159.161 121.305H159.172Z" fill="#ccf9c2"/>
<path d="M171.523 117.304H168.657V114.126H171.523V117.304ZM171.523 134.165H168.657V119.299H171.523V134.165Z" fill="#ccf9c2"/>
<path d="M182.818 119.017C186.403 119.017 187.774 121.339 187.774 124.799V134.165H184.908V125.565C184.908 123.413 184.548 121.418 181.851 121.418C179.368 121.418 178.154 123.21 178.154 126.174V134.165H175.288V119.299H178.154V121.452C179.008 119.987 180.491 119.017 182.807 119.017H182.818Z" fill="#ccf9c2"/>
<path d="M196.529 121.305C195.124 121.305 193.607 121.891 193.607 123.097C193.607 124.202 194.326 124.675 195.675 124.946L197.799 125.363C200.608 125.915 203.058 126.884 203.058 129.781C203.058 132.677 200.249 134.503 196.832 134.503C193.079 134.503 190.797 132.317 190.438 129.533H193.359C193.742 131.223 194.843 132.215 196.911 132.215C198.754 132.215 200.192 131.437 200.192 130.119C200.192 128.8 198.9 128.18 197.349 127.876L195.113 127.436C192.876 126.997 190.786 125.994 190.786 123.21C190.786 120.584 193.539 118.983 196.798 118.983C199.777 118.983 202.17 120.561 202.721 123.435H199.878C199.462 121.914 198.192 121.305 196.517 121.305H196.529Z" fill="#ccf9c2"/>
<path d="M208.846 125.644L214.746 119.288H218.241L212.476 125.419L218.646 134.154H215.229L210.52 127.493L208.835 129.285V134.154H205.969V114.115H208.835V125.644H208.846Z" fill="#ccf9c2"/>
<path d="M232.862 129.792C232.177 132.249 229.974 134.514 226.198 134.514C221.399 134.514 218.814 131.009 218.814 126.693C218.814 122.072 221.905 119.006 226.119 119.006C230.693 119.006 233.368 122.77 233.064 127.605H221.77C222.051 130.344 223.782 132.057 226.097 132.057C228.165 132.057 229.378 131.201 229.985 129.792H232.873H232.862ZM230.075 125.34C229.996 123.131 228.445 121.362 226.074 121.362C223.838 121.362 222.186 122.522 221.804 125.34H230.075Z" fill="#ccf9c2"/>
<path d="M246.562 121.474C247.472 119.953 249.012 119.017 251.192 119.017C254.642 119.017 257.587 121.914 257.587 126.76C257.587 131.607 254.642 134.526 251.192 134.526C249.012 134.526 247.472 133.59 246.562 132.069V139.011H243.696V119.299H246.562V121.486V121.474ZM254.53 126.749C254.53 123.402 252.9 121.418 250.529 121.418C248.326 121.418 246.449 123.075 246.449 126.749C246.449 130.423 248.326 132.114 250.529 132.114C252.9 132.114 254.53 130.096 254.53 126.749Z" fill="#ccf9c2"/>
<path d="M266.757 122.162C264.555 122.162 263.397 123.244 263.397 126.366V134.165H260.531V119.299H263.341V121.925C264.116 120.234 265.6 119.276 267.443 119.243C267.69 119.243 267.994 119.243 268.241 119.265V122.252C267.713 122.196 267.218 122.173 266.757 122.173V122.162Z" fill="#ccf9c2"/>
<path d="M276.748 134.526C273.253 134.526 269.556 132.147 269.556 126.783C269.556 121.418 273.253 119.017 276.748 119.017C280.243 119.017 283.974 121.395 283.974 126.783C283.974 132.17 280.277 134.526 276.748 134.526ZM280.94 126.783C280.94 123.075 278.928 121.452 276.748 121.452C274.568 121.452 272.59 123.03 272.59 126.783C272.59 130.536 274.602 132.091 276.748 132.091C278.895 132.091 280.94 130.401 280.94 126.783Z" fill="#ccf9c2"/>
<path d="M299.944 114.126V134.165H297.078V132.069C296.168 133.59 294.628 134.526 292.448 134.526C288.998 134.526 286.053 131.629 286.053 126.76C286.053 121.891 288.998 119.017 292.448 119.017C294.628 119.017 296.168 119.953 297.078 121.474V114.126H299.944ZM289.11 126.76C289.11 130.108 290.74 132.125 293.111 132.125C295.314 132.125 297.191 130.434 297.191 126.76C297.191 123.086 295.314 121.429 293.111 121.429C290.74 121.429 289.11 123.424 289.11 126.76Z" fill="#ccf9c2"/>
<path d="M308.474 134.526C304.979 134.526 303.619 132.339 303.619 128.744V119.288H306.485V127.966C306.485 130.119 306.845 132.08 309.429 132.08C311.823 132.08 313.014 130.288 313.014 127.357V119.288H315.88V134.154H312.992V132.057C312.138 133.545 310.699 134.514 308.474 134.514V134.526Z" fill="#ccf9c2"/>
<path d="M322.544 125.644L328.445 119.288H331.94L326.174 125.419L332.344 134.154H328.928L324.219 127.493L322.533 129.285V134.154H319.667V114.115H322.533V125.644H322.544Z" fill="#ccf9c2"/>
<path d="M338.492 115.478V119.288H341.414V121.474H338.492V129.961C338.492 131.483 338.739 131.866 340.177 131.866H341.391V134.165H339.301C336.3 134.165 335.637 133.421 335.637 130.355V121.486H333.378V119.299H335.637V115.49H338.503L338.492 115.478Z" fill="#ccf9c2"/>
<path d="M356.788 129.792C356.102 132.249 353.899 134.514 350.123 134.514C345.325 134.514 342.74 131.009 342.74 126.693C342.74 122.072 345.83 119.006 350.045 119.006C354.619 119.006 357.293 122.77 356.99 127.605H345.695C345.976 130.344 347.707 132.057 350.022 132.057C352.09 132.057 353.304 131.201 353.911 129.792H356.799H356.788ZM354.001 125.34C353.922 123.131 352.371 121.362 350 121.362C347.763 121.362 346.111 122.522 345.729 125.34H354.001Z" fill="#ccf9c2"/>
<path d="M366.093 122.162C363.89 122.162 362.733 123.244 362.733 126.366V134.165H359.867V119.299H362.677V121.925C363.452 120.234 364.935 119.276 366.779 119.243C367.026 119.243 367.329 119.243 367.576 119.265V122.252C367.048 122.196 366.554 122.173 366.093 122.173V122.162Z" fill="#ccf9c2"/>
</g>
<defs>
<clipPath id="clip0_8379_2165">
<rect width="367" height="139" fill="white" transform="translate(0.587769)"/>
</clipPath>
</defs>
</svg>
